<svg xmlns="http://www.w3.org/2000/svg" width="174" height="221" viewBox="90 50 174 221" fill="none" role="img" aria-label="INNOV.AS">
<title>INNOV.AS - isotipo teal</title>
<path d="M193.923 54.2636C191.466 51.0104 186.624 49.0377 182.25 50.4784C177.808 51.9417 175.268 55.2819 175.127 59.8446C174.968 64.998 177.39 68.8997 181.865 70.6991C185.204 72.0412 188.883 71.244 191.886 68.58C192.291 68.2207 192.84 67.031 194.488 67.3056C199.158 68.679 203.552 69.8984 206.287 71.037C209.605 72.4182 212.708 73.827 215.77 75.7431C217.695 76.9482 219.132 78.2284 221.166 79.9677C229.706 87.269 234.345 94.0458 239.287 102.313C241.029 105.227 241.348 109.068 241.97 112.548C242.472 115.36 242.693 118.273 242.619 121.13C242.439 128.073 241.713 134.956 240.036 141.741C238.881 146.416 239.669 150.936 241.814 155.318C244.663 161.138 247.246 167.089 249.926 172.991C250.107 173.389 250.132 173.858 250.254 174.405C249.776 174.618 249.393 174.881 248.975 174.96C242.535 176.17 240.793 180.998 239.622 186.571C237.889 192.837 236.354 199.115 235.021 205.45C234.593 209.597 234.044 214.263 233.243 218.672C232.976 222.258 228.7 223.788 225.071 223.794C218.859 223.803 215.91 223.887 209.735 223.318C199.481 222.373 191.002 224.329 186.193 234.588C184.449 238.31 182.047 242.554 179.914 246.059C179.057 247.468 178.576 248.73 177.039 249.374C172.842 251.133 169.051 253.058 168.316 258.19C167.689 262.58 170.524 268.199 174.466 270.203C177.697 271.845 183.461 270.843 186.279 268.148C189.586 264.987 190.824 259.321 188.719 255.245C187.779 253.425 189.097 252.1 189.975 250.476C192.408 245.976 194.687 242.491 197.131 237.997C198.531 235.423 201.262 234.402 204.31 234.41C210.527 234.427 223.335 234.535 229.553 234.582C238.665 234.387 245.138 228.984 246.43 219.955C246.922 216.515 247.137 213.036 247.631 209.597C247.953 207.356 248.505 205.145 249.029 202.939C250.313 197.538 251.56 192.124 253.019 186.769C253.319 185.666 254.478 184.796 255.448 183.759C263.164 181.486 265.609 176.145 262.218 169.126C259.871 164.268 256.952 159.641 255.067 154.619C253.237 149.742 251.559 144.387 253.34 139.208C256.005 131.459 256.344 123.512 255.661 115.621C255.107 109.222 253.375 102.896 250.168 97.0985C245.124 87.9785 240.527 80.3928 231.162 72.829C220.064 63.8653 209.439 59.5284 198.609 56.8671C195.863 56.1921 194.762 55.955 194.762 55.955L193.923 54.2636ZM223.384 195.85C190.697 196.125 214.655 196.113 188.654 196.701C182.611 196.701 178.996 198.245 175.669 202.429C175.669 202.429 162.927 218.258 160.161 218.259C156.297 218.259 154.971 218.391 149.473 216.47C144.194 213.77 138.111 216.127 134.857 221.849C132.296 226.35 134.383 233.089 139.295 236.179C144.319 239.339 150.279 238.35 153.513 233.335C155.371 230.453 157.66 229.304 160.807 229.734C165.914 230.432 169.619 228.513 172.927 224.624C176.349 220.6 180.293 213.019 184.201 209.443C185.293 208.445 186.783 207.148 188.248 207.139L190.899 206.664H200.844C207.509 206.594 206.909 205.968 213.578 206.145C216.477 206.223 218.794 206.145 221.661 206.145C221.934 202.661 222.721 199.165 223.384 195.85ZM221.975 167.207C199.39 167.343 181.884 168.006 175.523 168.006C167.042 168.006 163.59 170.658 162.178 171.726C157.591 176.04 145.385 184.692 140.747 188.947C139.356 190.223 137.109 190.566 135.007 191.334C131.678 191.693 129.297 190.735 126.955 188.481C122.244 183.95 115.568 184.322 111.251 188.888C107.339 193.025 107.429 200.031 111.45 204.384C115.587 208.861 122.154 209.163 126.933 204.893C128.925 203.113 131.032 202.275 133.657 202.518C134.654 202.611 135.69 202.366 136.672 202.513C141.578 203.245 144.638 200.403 147.658 197.182C151.339 193.255 163.062 185.416 167.042 181.801C168.079 180.859 169.293 180.11 170.882 179.276C174.489 177.383 176.186 177.287 187.456 177.287H229.886C231.212 175.298 232.538 175.298 234.526 173.973C233.201 169.332 233.2 167.343 231.212 167.343C230.176 167.289 222.784 167.207 221.975 167.207ZM129.774 106.342C124.988 102.597 119.004 102.889 114.482 107.557C110.593 111.572 110.482 118.086 114.231 122.277C118.293 126.819 125.009 127.482 129.566 123.793C135.312 119.142 140.124 119.243 145.636 124.248C149.011 127.313 154.244 133.628 156.959 136.184C161.6 141.488 159.782 141.556 152.982 143.476C149.667 144.412 141.807 146.462 140.915 146.48C131.309 146.681 121.7 146.867 112.094 146.811C110.638 146.803 109.067 145.722 107.758 144.831C101.904 140.844 94.51 142.244 91.3341 148.044C88.5896 153.056 90.2378 160.224 94.8331 163.261C99.5246 166.361 105.975 165.018 109.892 160.491C110.846 159.388 112.806 158.646 114.32 158.619C123.65 158.451 132.985 158.475 142.316 158.578C144.524 158.602 159.158 153.511 160.938 153.421C166.904 151.272 173.148 147.294 173.148 147.294C191.087 147.265 205.049 147.113 222.988 147.009C223.897 147.003 224.874 147.072 226.265 147.009C226.265 142.355 227.234 139.498 227.897 136.847C224.884 136.646 222.067 136.661 220.741 136.646C208.66 136.511 213.812 136.571 201.73 136.587C198.069 136.592 194.408 136.637 190.473 136.664C189.143 136.661 188.024 136.654 187.097 136.651C186.06 136.687 185.023 136.728 183.986 136.774C179.896 136.957 165.916 130.424 163.104 127.316C159.605 123.45 151.786 115.916 148.318 112.024C145.026 110.329 145.636 109.084 141.015 109.151C139.466 109.246 137.817 109.485 136.372 109.085C134.081 108.451 131.59 107.762 129.774 106.342ZM189.217 136.588C183.786 136.61 180.256 136.629 187.097 136.651C187.803 136.627 188.51 136.607 189.217 136.588ZM195.785 136.501C193.596 136.498 191.406 136.53 189.217 136.588C197.798 136.553 211.123 136.52 195.785 136.501ZM160.673 82.3319C161.598 74.6349 153.446 69.3484 146.757 71.3632C142.217 72.7305 139.651 76.0882 139.118 81.6444C138.7 86.0137 140.679 89.6818 144.891 91.5204C147.42 92.6247 150.661 92.5713 152.733 94.1513C156.977 97.386 160.76 101.263 164.505 105.097C166.18 106.811 167.891 107.682 170.248 107.677C212.419 107.614 195.11 107.585 224.022 107.549H227.897C225.908 101.71 225.245 101.047 222.593 96.8026C218.615 96.1397 220.169 96.8093 213.611 96.8026C210.828 96.863 184.633 96.8685 181.795 96.8632C160.564 96.8396 196.435 96.7719 175.48 96.8554C172.586 96.8669 170.419 96.1252 168.525 93.9071C166.845 91.9384 164.857 90.2183 162.912 88.4921C161.021 86.8126 160.381 84.7579 160.673 82.3319Z" fill="#0F6B60"/>
</svg>
