<svg width="124" height="124" viewBox="0 0 124 124" fill="none" xmlns="http://www.w3.org/2000/svg">
<path d="M70.5479 6.23829C69.2583 4.53076 66.7167 3.49491 64.4209 4.25098C62.0895 5.01904 60.7557 6.77215 60.6817 9.167C60.5981 11.872 61.8697 13.9197 64.2188 14.8643C65.971 15.5687 67.9023 15.1511 69.4786 13.7529C69.6912 13.5643 69.9797 12.9388 70.8448 13.083C73.2956 13.8039 75.6014 14.4444 77.0372 15.042C78.7787 15.7669 80.4076 16.5061 82.0147 17.5117C83.0255 18.1442 83.7792 18.8167 84.8467 19.7295C89.329 23.5619 91.7646 27.1194 94.3584 31.459C95.2725 32.9881 95.4403 35.0046 95.7666 36.8311C96.0304 38.3073 96.1464 39.8355 96.1075 41.335C96.0129 44.9796 95.6323 48.5928 94.752 52.1543C94.1456 54.6081 94.5589 56.9805 95.6846 59.2803C97.18 62.3351 98.537 65.4585 99.9434 68.5566C100.038 68.7655 100.051 69.0118 100.115 69.2988C99.8642 69.4105 99.6628 69.5486 99.4434 69.5899C96.0632 70.2251 95.1495 72.7593 94.5352 75.6846C93.6256 78.9736 92.8192 82.2685 92.1192 85.5938C91.8949 87.7704 91.6067 90.22 91.1866 92.5342C91.0462 94.4165 88.8013 95.2198 86.8965 95.2227C83.6359 95.2275 82.0881 95.2714 78.8477 94.9727C73.4653 94.4765 69.0144 95.5032 66.4903 100.888C65.5746 102.841 64.314 105.069 63.1944 106.909C62.7446 107.648 62.4926 108.311 61.6856 108.649C59.4824 109.573 57.4927 110.583 57.1075 113.277C56.7782 115.582 58.2661 118.53 60.335 119.582C62.0309 120.444 65.0556 119.918 66.5352 118.504C68.271 116.845 68.9213 113.87 67.8165 111.73C67.3234 110.775 68.0139 110.08 68.4747 109.228C69.7519 106.866 70.9489 105.037 72.2315 102.678C72.9662 101.326 74.4005 100.791 76 100.795C79.2637 100.804 85.9854 100.86 89.2491 100.885C94.0319 100.782 97.4296 97.9465 98.1075 93.207C98.3657 91.4017 98.4792 89.5756 98.7383 87.7705C98.9071 86.5947 99.1974 85.4343 99.4727 84.2764C100.147 81.4413 100.801 78.5997 101.566 75.7891C101.724 75.2098 102.332 74.7525 102.842 74.208C106.891 73.0153 108.174 70.2122 106.395 66.5283C105.163 63.9787 103.631 61.5491 102.642 58.9131C101.681 56.3531 100.8 53.5426 101.735 50.8242C103.134 46.7569 103.312 42.5859 102.953 38.4443C102.662 35.0856 101.753 31.7647 100.07 28.7217C97.4226 23.9346 95.0096 19.9527 90.0938 15.9824C84.2683 11.2776 78.6914 9.00136 73.0069 7.6045C71.584 7.25486 71.0031 7.12918 70.9883 7.12598L70.5479 6.23829ZM86.0118 80.5547C68.8543 80.6989 81.4296 80.6932 67.7823 81.002C64.6103 81.002 62.7123 81.8117 60.9659 84.0078C60.9514 84.0258 54.2763 92.3174 52.8262 92.3174C50.7983 92.3174 50.1021 92.3863 47.2159 91.3779C44.4454 89.9613 41.2523 91.1981 39.544 94.2012C38.2001 96.5638 39.296 100.101 41.8741 101.723C44.5113 103.381 47.6396 102.863 49.337 100.23C50.3125 98.7177 51.5135 98.115 53.1651 98.3408C55.846 98.7074 57.7911 97.6997 59.5274 95.6582C61.3239 93.5459 63.3937 89.5664 65.4454 87.6895C66.0182 87.1654 66.7996 86.4856 67.5684 86.4805L68.961 86.2315H74.1807C77.6786 86.1945 77.3642 85.8658 80.8643 85.959C82.3858 85.9995 83.6026 85.959 85.1075 85.959C85.2507 84.13 85.6639 82.2946 86.0118 80.5547ZM85.2715 65.5205C73.4171 65.592 64.229 65.9404 60.8897 65.9404C56.4382 65.9404 54.6261 67.3318 53.8848 67.8926C51.4772 70.1568 45.07 74.6982 42.6358 76.9316C41.9057 77.6015 40.7263 77.7815 39.6231 78.1846C37.8755 78.3728 36.626 77.8702 35.3965 76.6875C32.924 74.309 29.4202 74.5041 27.1543 76.9004C25.1008 79.0722 25.148 82.7494 27.2588 85.0342C29.4302 87.3844 32.8765 87.5429 35.3848 85.3018C36.4307 84.3672 37.5367 83.928 38.9151 84.0557C39.4381 84.1041 39.9816 83.9758 40.4971 84.0527C43.0722 84.4369 44.6783 82.9449 46.2637 81.2539C48.1957 79.1933 54.3483 75.0783 56.4375 73.1807C56.982 72.6861 57.62 72.2933 58.4541 71.8555C60.3475 70.8618 61.2381 70.8115 67.1534 70.8115H89.4239C90.1197 69.7679 90.8158 69.7679 91.8594 69.0723C91.1636 66.6367 91.1637 65.592 90.1202 65.5918C89.5764 65.5638 85.6962 65.5204 85.2715 65.5205ZM36.877 33.5732C34.3645 31.6076 31.2238 31.7611 28.8506 34.2109C26.8091 36.3184 26.7511 39.7375 28.7188 41.9375C30.8509 44.3209 34.3757 44.6696 36.7676 42.7334C39.7834 40.292 42.309 40.345 45.2022 42.9717C46.974 44.5804 49.7213 47.8952 51.1465 49.2373C53.5819 52.0206 52.6278 52.0567 49.0586 53.0645C47.3188 53.5557 43.1928 54.6317 42.7247 54.6416C37.6826 54.7467 32.6391 54.8444 27.5967 54.8154C26.8325 54.8111 26.0075 54.2433 25.3204 53.7754C22.2476 51.6832 18.3673 52.4178 16.7002 55.4619C15.2597 58.0929 16.1251 61.8552 18.5372 63.4492C20.9996 65.0764 24.3846 64.3712 26.4405 61.9951C26.9415 61.4161 27.971 61.027 28.7657 61.0127C33.6625 60.9243 38.5621 60.9372 43.46 60.9912C44.6187 61.004 52.3003 58.3316 53.2344 58.2842C56.3661 57.1562 59.6426 55.0684 59.6426 55.0684C69.059 55.0532 76.3875 54.9736 85.8038 54.919C86.2808 54.9162 86.7933 54.9521 87.5235 54.919C87.5235 52.4761 88.032 50.9769 88.3799 49.585C86.7985 49.4796 85.3197 49.4873 84.6241 49.4795C78.2832 49.4085 80.9873 49.4399 74.6456 49.4482C72.7241 49.4508 70.802 49.4751 68.7364 49.4893C68.0361 49.4877 67.4477 49.484 66.96 49.4824C66.4172 49.5011 65.8745 49.5227 65.3321 49.5469C63.1851 49.6425 55.8475 46.2141 54.3711 44.583C52.5348 42.5538 48.4304 38.5985 46.6104 36.5557C44.8825 35.6658 45.202 35.0127 42.7764 35.0479C41.9637 35.0975 41.0981 35.2225 40.3399 35.0127C39.1376 34.68 37.8299 34.3188 36.877 33.5732ZM71.5254 49.4033C70.3604 49.4018 69.1945 49.4198 68.0293 49.4512C72.5312 49.4327 79.6046 49.4136 71.5254 49.4033ZM53.0958 20.9707C53.5815 16.9307 49.3022 14.1556 45.7911 15.2129C43.4083 15.9306 42.0608 17.6932 41.7813 20.6094C41.5616 22.9028 42.6011 24.8289 44.8116 25.794C46.1392 26.3735 47.84 26.3456 48.9278 27.1748C51.155 28.8727 53.1406 30.9076 55.1065 32.9199C55.9857 33.8198 56.8838 34.277 58.1211 34.2744C80.2562 34.2415 71.1712 34.2263 86.3467 34.207H88.3799C87.3361 31.1426 86.9884 30.7942 85.5967 28.5664C83.5089 28.2184 84.3241 28.5699 80.8819 28.5664C79.4205 28.5981 65.6708 28.6005 64.1817 28.5977C53.038 28.5853 71.8662 28.55 60.8672 28.5938C59.3484 28.5998 58.2108 28.2109 57.2168 27.0469C56.3346 26.0135 55.2911 25.1102 54.2706 24.2041C53.2776 23.3226 52.9427 22.2441 53.0958 20.9707Z" fill="#EDE8DC"/>
</svg>
