<svg width="124" height="124" viewBox="0 0 124 124" fill="none" xmlns="http://www.w3.org/2000/svg">
<rect width="124" height="124" fill="#1E1E1E"/>
<path d="M51.67 19.7529C52.7977 18.1732 54.6085 17.6494 56.3692 18.2295C58.1572 18.8185 59.1796 20.1633 59.2364 22C59.3004 24.0744 58.325 25.6448 56.5235 26.3691C55.1797 26.9093 53.2567 26.3673 52.0479 25.2949C51.5072 24.8153 50.7434 24.3671 50.0498 24.3144C44.3869 23.8851 38.7672 24.0599 33.4239 26.2842C32.0882 26.8401 30.839 27.6281 29.6065 28.3994C28.8313 28.8845 28.2105 29.6168 27.4346 30.1006C23.9661 32.2634 22.129 35.7676 20.1397 39.0957C19.4388 40.2684 19.3108 41.8151 19.0606 43.2158C18.8583 44.3479 18.769 45.5199 18.7989 46.6699C18.8714 49.4649 19.1629 52.2355 19.8379 54.9668C20.3031 56.8488 19.9865 58.6687 19.1231 60.4326C17.9762 62.7754 16.9361 65.1708 15.8575 67.5469C15.7847 67.7071 15.7748 67.896 15.7256 68.1162C15.9179 68.2018 16.0722 68.3072 16.2403 68.3388C18.8327 68.826 19.5338 70.7701 20.0049 73.0136C20.5405 75.564 21.3206 78.0631 21.8575 80.6133C22.2254 82.3612 22.4405 84.1525 22.5733 85.9355C22.6808 87.3791 23.0754 87.9949 24.5362 87.997C27.037 88.0008 29.551 88.0347 32.0362 87.8056C36.1639 87.4252 39.3553 88.4341 41.2911 92.5635C41.9933 94.0616 42.7391 95.5487 43.5977 96.9599C43.9426 97.5269 44.5784 98.0356 45.1973 98.2949C46.8871 99.0029 48.4136 99.7775 48.709 101.844C48.9617 103.611 47.8202 105.873 46.2334 106.68C44.9327 107.341 42.6122 106.937 41.4776 105.853C40.1465 104.58 39.6489 102.299 40.4961 100.658C40.8744 99.9256 40.786 99.3917 40.4327 98.7383C39.4531 96.9268 38.5354 95.0816 37.5518 93.2724C36.9884 92.2363 36.1095 91.6041 34.8829 91.6074C32.38 91.6141 29.8768 91.6404 27.3741 91.6592C26.5638 91.6652 25.7531 91.6941 24.9434 91.6767C21.2755 91.5982 19.5542 90.0867 19.0342 86.4521C18.8362 85.0675 18.7496 83.6667 18.5508 82.2822C18.4214 81.3805 18.1985 80.4906 17.9873 79.6025C17.4704 77.4281 16.9691 75.2484 16.3819 73.0927C16.2608 72.6486 15.7941 72.2984 15.4034 71.8808C12.2977 70.9662 11.3137 68.8165 12.6788 65.9912C13.6235 64.0359 14.7979 62.1729 15.5567 60.1513C16.2706 58.2492 16.9272 56.1664 16.3155 54.1426L16.0616 53.3613C15.1636 50.4281 15.0607 47.4308 15.3184 44.4531C15.5414 41.8772 16.2385 39.3298 17.5293 36.9961C19.5599 33.3249 22.0255 30.0302 25.1797 27.2265C28.5774 24.2065 32.5418 22.4453 36.9014 21.374C41.0768 20.348 45.2978 20.5358 49.5225 20.7236C50.4556 20.7651 51.0963 20.5565 51.67 19.7529ZM63.2491 81.4863C65.5521 81.0831 67.1598 81.9819 68.4991 83.666C69.2742 84.6408 70.194 85.5058 71.087 86.3808C72.1117 87.385 72.9311 88.6536 74.7422 88.4375C76.1928 88.2644 77.6565 88.4268 79.045 87.7168C81.1697 86.6303 83.6187 87.5796 84.9288 89.8828C85.9591 91.6947 85.1186 94.4067 83.1416 95.6504C81.1191 96.9225 78.7197 96.5246 77.418 94.5058C76.6699 93.3458 75.749 92.8835 74.4825 93.0566C72.4266 93.3377 70.9351 92.5653 69.6036 91C68.2258 89.3801 66.6379 87.9297 65.0645 86.4902C64.6251 86.0883 63.9121 85.7821 63.3223 85.7783C56.8769 85.7376 50.4306 85.8084 43.9854 85.7549C41.2382 85.732 38.4935 85.4001 35.7461 85.3711C33.0632 85.3428 30.378 85.533 27.6934 85.6045C26.5266 85.6355 25.3581 85.6094 24.2041 85.6094C24.0943 84.2068 23.9957 82.9406 23.8819 81.4863H63.2491ZM22.6651 68.9541C41.8203 68.959 60.9758 68.9596 80.1309 69.0029C80.725 69.0043 81.4552 69.2993 81.8877 69.706C83.7341 71.4424 85.4449 73.3243 87.3116 75.0371C87.8715 75.5508 88.777 75.6879 89.6231 75.997C90.9632 76.1414 91.9215 75.7566 92.8643 74.8496C94.7606 73.0253 97.4478 73.1748 99.1856 75.0127C100.76 76.6783 100.724 79.4987 99.1055 81.251C97.4403 83.0533 94.7968 83.1748 92.8731 81.456C92.071 80.7393 91.223 80.4021 90.1661 80.5C89.765 80.5371 89.3476 80.4381 88.9522 80.497C86.9775 80.7916 85.7461 79.6483 84.5303 78.3515C83.0487 76.7711 81.5318 75.216 79.9297 73.7607C79.5123 73.3816 78.7214 73.2785 78.1016 73.2773C64.2134 73.2513 50.3248 73.2595 36.4366 73.2549C32.2743 73.2535 28.1105 73.27 23.9502 73.1719C23.3992 73.1587 22.6035 72.6319 22.376 72.1347C21.947 71.1957 21.8492 70.1048 21.5977 69.0068C22.0147 68.9854 22.3401 68.954 22.6651 68.9541ZM95.9971 48.1894C97.924 46.6819 100.332 46.7991 102.152 48.6777C103.718 50.294 103.763 52.9163 102.254 54.6035C100.619 56.4317 97.9146 56.6989 96.0801 55.2138C93.7675 53.3418 91.831 53.3823 89.6123 55.3965C88.2535 56.6302 86.9349 57.9092 85.8418 58.9385C87.4608 60.6927 88.9373 62.3238 90.46 63.9101C90.7038 64.1641 91.154 64.3392 91.5127 64.3467C95.3795 64.4272 99.2474 64.5017 103.114 64.4795C103.7 64.4761 104.333 64.0414 104.859 63.6826C107.216 62.0778 110.192 62.6417 111.471 64.9765C112.575 66.9942 111.912 69.8791 110.063 71.1015C108.174 72.3496 105.578 71.8086 104.001 69.9863C103.617 69.5422 102.827 69.2444 102.218 69.2334C98.4623 69.1656 94.7046 69.1754 90.9483 69.2168C90.0597 69.2266 89.4384 68.9293 88.8243 68.3086C86.5477 66.0076 84.2429 63.7329 81.8916 61.5088C81.5236 61.1606 80.8609 60.9671 80.334 60.9658C68.5515 60.9358 56.7689 60.9574 44.9864 60.9385C37.7648 60.9268 30.5428 60.8651 23.3213 60.8232C22.9556 60.8211 22.59 60.792 22.0303 60.7666C22.2395 59.5936 22.3136 58.4423 22.6963 57.4052C22.8429 57.0089 23.6922 56.6575 24.2256 56.6513C29.0891 56.5969 33.9543 56.6215 38.8184 56.6279C40.2919 56.6298 41.7656 56.6483 43.3496 56.6592C54.0721 56.6355 64.6841 56.6063 75.2959 56.5927C76.879 56.5907 78.4634 56.6326 80.045 56.7031C81.6915 56.7765 83.0496 56.2822 84.1817 55.0312C85.59 53.475 87.1365 52.0432 88.5323 50.4765C89.3553 49.5527 90.3042 49.2489 91.4727 49.3203C92.0959 49.3584 92.7594 49.4539 93.3409 49.2929C94.263 49.0378 95.2662 48.7612 95.9971 48.1894ZM82.3897 36.5332C84.1507 34.8046 86.8777 34.9286 88.5577 36.6328C90.1912 38.2903 90.2406 41.2427 88.6631 42.9756C87.0744 44.7208 84.521 44.8882 82.5821 43.375C80.5534 41.7917 77.974 42.0003 76.1709 43.8515C74.5526 45.5131 72.9189 47.1618 71.2422 48.7636C70.9163 49.0749 70.3607 49.3019 69.9102 49.3037C55.2833 49.3607 40.6563 49.3872 26.0293 49.4131C24.8149 49.4152 23.5994 49.3551 22.3858 49.3799C21.6563 49.3948 21.2675 49.1403 21.2764 48.2871C21.2341 47.6403 21.1985 47.0888 21.168 46.5371C21.1032 45.3661 21.3495 45.0759 22.5264 45.0732C25.7686 45.0657 29.0108 45.0879 32.253 45.0869C44.0065 45.0831 55.7602 45.0672 67.5137 45.0791C68.6485 45.0802 69.5186 44.7903 70.3164 43.8945C71.8802 42.1387 73.5525 40.4741 75.2539 38.8496C75.7178 38.4068 76.4202 38.1442 77.0596 37.9736C77.7249 37.7962 78.4508 37.7507 79.1426 37.7881C80.4355 37.8579 81.43 37.4751 82.3897 36.5332ZM66.1045 26.8799C65.732 23.7815 69.0133 21.6528 71.7061 22.4638C73.5335 23.0142 74.567 24.366 74.7813 26.6025C74.9498 28.3614 74.1523 29.838 72.4571 30.5781C71.4389 31.0226 70.1341 31.0017 69.2998 31.6377C67.5919 32.9397 66.0691 34.4998 64.5616 36.0429C63.8873 36.7331 63.199 37.084 62.25 37.082C50.6117 37.0567 38.9724 37.045 27.334 37.0302C26.4236 37.0291 25.5131 37.0302 24.6026 37.0302C24.5501 36.9311 24.4978 36.8316 24.4454 36.7324C24.7934 36.3072 25.186 35.9107 25.4825 35.4521C26.9142 33.2375 28.8504 32.2521 31.5254 32.7041C32.5281 32.8734 33.5837 32.7306 34.7256 32.7285C43.272 32.719 51.7079 32.692 60.1436 32.7256C61.3085 32.7302 62.181 32.432 62.9434 31.539C63.62 30.7465 64.4205 30.0543 65.2032 29.3594C65.9645 28.6834 66.2218 27.8562 66.1045 26.8799Z" fill="url(#paint0_linear_596_422)"/>
<defs>
<linearGradient id="paint0_linear_596_422" x1="32.6243" y1="21.6115" x2="84.5949" y2="106.975" gradientUnits="userSpaceOnUse">
<stop stop-color="#01CEF8"/>
<stop offset="1" stop-color="#8545FD"/>
</linearGradient>
</defs>
</svg>
